HIERARCHY
ROOT hip
{
  OFFSET 0 0 0
  CHANNELS 6 Xposition Yposition Zposition Zrotation Yrotation Xrotation
  JOINT abdomen
  {
    OFFSET 0 20.6881 -0.73152
    CHANNELS 3 Zrotation Xrotation Yrotation
    JOINT chest
    {
      OFFSET 0 11.7043 -0.48768
      CHANNELS 3 Zrotation Xrotation Yrotation
      JOINT neck
      {
        OFFSET 0 22.1894 -2.19456
        CHANNELS 3 Zrotation Xrotation Yrotation
        JOINT head
        {
          OFFSET -0.24384 7.07133 1.2192
          CHANNELS 3 Zrotation Xrotation Yrotation
          JOINT leftEye
          {
            OFFSET 4.14528 8.04674 8.04672
            CHANNELS 3 Zrotation Xrotation Yrotation
            End Site
            {
              OFFSET 1 0 0
            }
          }
          JOINT rightEye
          {
            OFFSET -3.6576 8.04674 8.04672
            CHANNELS 3 Zrotation Xrotation Yrotation
            End Site
            {
              OFFSET 1 0 0
            }
          }
        }
      }
      JOINT rCollar
      {
        OFFSET -2.68224 19.2634 -4.8768
        CHANNELS 3 Zrotation Xrotation Yrotation
        JOINT rShldr
        {
          OFFSET -8.77824 -1.95073 1.46304
          CHANNELS 3 Zrotation Xrotation Yrotation
          JOINT rForeArm
          {
            OFFSET -28.1742 -1.7115 0.48768
            CHANNELS 3 Zrotation Xrotation Yrotation
            JOINT rHand
            {
              OFFSET -22.5879 0.773209 7.07136
              CHANNELS 3 Zrotation Xrotation Yrotation
              JOINT rThumb1
              {
                OFFSET -1.2192 -0.487915 3.41376
                CHANNELS 3 Zrotation Xrotation Yrotation
                JOINT rThumb2
                {
                  OFFSET -3.37035 -0.52449 3.41376
                  CHANNELS 3 Zrotation Xrotation Yrotation
                  End Site
                  {
                    OFFSET -1.78271 -1.18214 1.43049
                  }
                }
              }
              JOINT rIndex1
              {
                OFFSET -7.75947 0.938293 5.60832
                CHANNELS 3 Zrotation Xrotation Yrotation
                JOINT rIndex2
                {
                  OFFSET -2.54057 -0.884171 1.56538
                  CHANNELS 3 Zrotation Xrotation Yrotation
                  End Site
                  {
                    OFFSET -1.62519 -0.234802 1.16502
                  }
                }
              }
              JOINT rMid1
              {
                OFFSET -8.24714 1.18213 3.41376
                CHANNELS 3 Zrotation Xrotation Yrotation
                JOINT rMid2
                {
                  OFFSET -3.10165 -0.590103 1.0647
                  CHANNELS 3 Zrotation Xrotation Yrotation
                  End Site
                  {
                    OFFSET -2.48547 -0.328903 0.83742
                  }
                }
              }
              JOINT rRing1
              {
                OFFSET -8.82822 0.546677 1.51678
                CHANNELS 3 Zrotation Xrotation Yrotation
                JOINT rRing2
                {
                  OFFSET -2.60934 -0.819778 -0.0198488
                  CHANNELS 3 Zrotation Xrotation Yrotation
                  End Site
                  {
                    OFFSET -2.33842 -0.294052 0.168128
                  }
                }
              }
              JOINT rPinky1
              {
                OFFSET -8.27202 -0.0477905 -0.4584
                CHANNELS 3 Zrotation Xrotation Yrotation
                JOINT rPinky2
                {
                  OFFSET -1.82734 -0.647385 -0.700984
                  CHANNELS 3 Zrotation Xrotation Yrotation
                  End Site
                  {
                    OFFSET -1.69225 -0.51767 -0.607171
                  }
                }
              }
            }
          }
        }
      }
      JOINT lCollar
      {
        OFFSET 2.68224 19.2634 -4.8768
        CHANNELS 3 Zrotation Xrotation Yrotation
        JOINT lShldr
        {
          OFFSET 8.77824 -1.95073 1.46304
          CHANNELS 3 Zrotation Xrotation Yrotation
          JOINT lForeArm
          {
            OFFSET 28.1742 -1.7115 0.48768
            CHANNELS 3 Zrotation Xrotation Yrotation
            JOINT lHand
            {
              OFFSET 22.5879 0.773209 7.07136
              CHANNELS 3 Zrotation Xrotation Yrotation
              JOINT lThumb1
              {
                OFFSET 1.2192 -0.487915 3.41376
                CHANNELS 3 Zrotation Xrotation Yrotation
                JOINT lThumb2
                {
                  OFFSET 3.37035 -0.52449 3.41376
                  CHANNELS 3 Zrotation Xrotation Yrotation
                  End Site
                  {
                    OFFSET 1.78271 -1.18214 1.43049
                  }
                }
              }
              JOINT lIndex1
              {
                OFFSET 7.75947 0.938293 5.60832
                CHANNELS 3 Zrotation Xrotation Yrotation
                JOINT lIndex2
                {
                  OFFSET 2.54057 -0.884171 1.56538
                  CHANNELS 3 Zrotation Xrotation Yrotation
                  End Site
                  {
                    OFFSET 1.62519 -0.234802 1.16502
                  }
                }
              }
              JOINT lMid1
              {
                OFFSET 8.24714 1.18213 3.41376
                CHANNELS 3 Zrotation Xrotation Yrotation
                JOINT lMid2
                {
                  OFFSET 3.10165 -0.590103 1.0647
                  CHANNELS 3 Zrotation Xrotation Yrotation
                  End Site
                  {
                    OFFSET 2.48547 -0.328903 0.83742
                  }
                }
              }
              JOINT lRing1
              {
                OFFSET 8.82822 0.546677 1.51678
                CHANNELS 3 Zrotation Xrotation Yrotation
                JOINT lRing2
                {
                  OFFSET 2.60934 -0.819778 -0.0198488
                  CHANNELS 3 Zrotation Xrotation Yrotation
                  End Site
                  {
                    OFFSET 2.33842 -0.294052 0.168128
                  }
                }
              }
              JOINT lPinky1
              {
                OFFSET 8.27202 -0.0477905 -0.4584
                CHANNELS 3 Zrotation Xrotation Yrotation
                JOINT lPinky2
                {
                  OFFSET 1.82734 -0.647385 -0.700984
                  CHANNELS 3 Zrotation Xrotation Yrotation
                  End Site
                  {
                    OFFSET 1.69225 -0.51767 -0.607171
                  }
                }
              }
            }
          }
        }
      }
    }
  }
  JOINT rButtock
  {
    OFFSET -8.77824 4.35084 1.2192
    CHANNELS 3 Zrotation Xrotation Yrotation
    JOINT rThigh
    {
      OFFSET 0 -1.70687 -2.19456
      CHANNELS 3 Zrotation Xrotation Yrotation
      JOINT rShin
      {
        OFFSET 0 -36.8199 0.73152
        CHANNELS 3 Zrotation Xrotation Yrotation
        JOINT rFoot
        {
          OFFSET 0.73152 -45.1104 -5.12064
          CHANNELS 3 Zrotation Xrotation Yrotation
          End Site
          {
            OFFSET -1.1221 -3.69964 12.103
          }
        }
      }
    }
  }
  JOINT lButtock
  {
    OFFSET 8.77824 4.35084 1.2192
    CHANNELS 3 Zrotation Xrotation Yrotation
    JOINT lThigh
    {
      OFFSET 0 -1.70687 -2.19456
      CHANNELS 3 Zrotation Xrotation Yrotation
      JOINT lShin
      {
        OFFSET 0 -36.8199 0.73152
        CHANNELS 3 Zrotation Xrotation Yrotation
        JOINT lFoot
        {
          OFFSET -0.73152 -45.1104 -5.12064
          CHANNELS 3 Zrotation Xrotation Yrotation
          End Site
          {
            OFFSET 1.1221 -3.69964 12.103
          }
        }
      }
    }
  }
}
MOTION
Frames:	9
Frame Time:	0.03333
0.0 0.0 0.0 0.0 0.0 0.0 0.0 0.0 0.0 0.0 0.0 0.0 0.0 0.0 0.0 0.0 0.0 0.0 0.0 0.0 0.0 0.0 0.0 0.0 0.0 0.0 0.0 0.0 0.0 0.0 0.0 0.0 0.0 0.0 0.0 0.0 0.0 0.0 0.0 0.0 0.0 0.0 0.0 0.0 0.0 0.0 0.0 0.0 0.0 0.0 0.0 0.0 0.0 0.0 0.0 0.0 0.0 0.0 0.0 0.0 0.0 0.0 0.0 0.0 0.0 0.0 0.0 0.0 0.0 0.0 0.0 0.0 0.0 0.0 0.0 0.0 0.0 0.0 0.0 0.0 0.0 0.0 0.0 0.0 0.0 0.0 0.0 0.0 0.0 0.0 0.0 0.0 0.0 0.0 0.0 0.0 0.0 0.0 0.0 0.0 0.0 0.0 0.0 0.0 0.0 0.0 0.0 0.0 0.0 0.0 0.0 0.0 0.0 0.0 0.0 0.0 0.0 0.0 0.0 0.0 0.0 0.0 0.0 0.0 0.0 0.0 0.0 0.0 0.0 0.0 0.0 0.0
0.0082 13.0385 -0.0829 -179.719224 13.985214 179.390956 -1.878958 2.3644 122.903117 2.572461 -3.203463 -121.471768 -167.49126 57.071592 132.836044 -152.959906 -24.547059 169.367577 -36.794879 -13.282228 38.585942 -37.08806 -12.220456 35.398127 -92.138163 3.798753 -12.403965 179.758129 14.265322 -7.189068 -5.828005 -32.264519 141.96002 32.826964 -44.749056 -103.473703 -6.058686 -9.35861 -58.546735 -35.651781 7.32748 13.038018 16.022501 85.450964 -45.077805 -137.438442 14.815459 110.244262 177.154411 42.216442 -177.671109 -163.400787 9.126173 144.650017 -158.868646 7.174121 -159.193011 -72.883244 85.042338 87.610069 -97.40084 -50.036059 -80.07012 -161.717353 53.100247 -148.608993 -59.895822 42.2961 -9.636308 -46.151268 -71.29545 -33.735885 2.369804 18.506018 -151.216839 -20.002753 -44.538649 138.876965 3.556028 -13.750502 29.253953 21.197266 -9.219798 12.214916 13.821711 -21.058844 35.034149 6.316272 18.855727 1.408249 166.478912 -33.804138 -164.225895 -14.794601 -24.100976 -3.222406 33.444322 -61.032591 29.951909 154.986945 21.121633 -170.902311 161.17354 -19.986775 151.76827 147.84449 8.627 141.128005 -73.523572 18.394609 -81.242257 49.114541 71.912527 -180.0 17.201542 -4.198514 101.742575 64.653414 -50.930027 -136.722406 13.941815 -28.768352 -0.0 -20.203509 24.360901 -0.0 3.03487 5.494772 11.116349 119.043088 -1.703226 -9.439618
0.3338 21.6125 -0.2807 173.022124 -0.425863 -177.959416 -18.938392 23.888548 -0.0 -9.832017 -46.192252 7.576102 46.087507 74.257265 -55.796782 6.213582 -34.185238 -27.606542 -57.069496 -2.240202 4.118728 -50.799012 -4.569983 9.607109 -86.756698 -59.902517 -133.632797 161.428023 61.23296 -146.023498 153.944277 16.327265 102.652535 156.103641 10.746908 161.468719 -160.846596 -27.805704 81.060402 -77.387898 -6.570682 30.877149 -3.871058 46.361091 35.581981 -167.4395 -27.513798 52.693132 54.052721 57.094626 37.217783 164.657799 7.550266 -166.092551 65.153834 3.503194 -12.562808 -144.645597 -9.041144 152.905203 50.563836 -37.152681 -20.157377 -120.363643 0.237924 -134.698597 174.079058 -4.747126 -153.98759 75.686218 13.105967 -43.011356 -3.411781 -31.327787 161.133775 170.910643 25.217664 -89.742461 0.646897 43.897001 35.573735 -6.901637 -16.401066 4.19303 10.299757 -26.839161 78.223178 0.460175 18.954515 0.604855 14.354851 -17.914357 72.853756 33.953976 51.665241 -40.129012 92.777364 -20.064243 123.644949 140.930974 -22.986919 -156.188325 -35.294242 29.738261 24.563953 3.09286 -4.738779 -13.966287 -15.406809 9.728446 23.082379 27.542911 -68.271161 79.795915 77.400477 13.304632 -125.351775 -15.362799 -28.180756 -2.851248 -76.840781 58.924985 -49.307338 68.775708 -4.488276 14.258283 -57.24627 61.019022 171.332357 -19.846675 -48.865655 -30.272155
1.0775 24.2102 -0.5388000000000001 172.868682 3.081166 -178.592762 -31.746227 27.913782 -0.0 15.852605 -36.456943 16.79895 -102.315878 79.374049 103.254775 12.080963 -55.117443 -45.977966 -60.19271 2.05746 -3.549071 -51.191456 -0.265742 0.554748 -126.979968 -0.539167 170.844275 -28.686864 -6.166665 -4.722781 161.121921 25.707673 -117.678423 14.452884 68.628793 -13.447581 -55.060388 41.740343 81.377949 -65.960887 42.44059 58.28662 -92.547102 -62.091456 170.880637 -10.256425 23.796089 -56.156898 82.453586 63.687054 5.549744 -179.539988 -44.385426 -172.122503 76.170405 5.017742 -2.49779 -162.126796 76.015757 168.647923 -86.338023 -7.79853 -134.958153 -151.358005 -36.887405 -95.348769 -3.206515 26.533497 -4.621905 102.274458 14.481036 -173.790399 -106.898414 -53.866402 107.062092 31.830879 50.990989 33.799122 173.297199 -61.850256 -128.358835 5.032242 -69.019631 19.649722 53.008521 -58.014792 109.450929 171.967025 28.231473 -106.842825 -72.629629 51.913065 83.709619 68.795904 42.151254 -32.662286 -82.144259 74.106612 60.737339 141.610595 -22.949867 171.249837 137.263493 1.453591 114.389401 143.330911 0.140392 125.211022 -84.788846 7.929631 -26.83671 120.264015 -20.976277 -33.081772 -80.245878 27.969362 -90.791794 175.787813 -8.704495 -131.311816 116.304718 58.513095 44.880415 160.710936 57.443199 -127.926994 -39.719087 -56.476834 41.693186 -164.796671 -25.338282 -172.673725
1.77 23.9037 -0.3778 172.899167 3.427196 -178.059248 -31.060631 18.546797 9.506307 10.604077 -25.345506 -0.230017 -133.563926 37.662977 66.180216 94.740727 2.177112 21.421638 -57.672607 13.904749 -24.97624 -56.311726 11.779976 -21.820503 31.879527 -59.909478 -17.529232 38.025901 8.91441 -16.772947 -13.583745 37.11395 62.959594 15.379523 43.623201 -12.812505 -168.682772 -57.425147 56.321675 -73.667417 -22.98512 32.550259 -139.39574 -51.931129 135.322899 -23.506113 32.528293 -65.588751 93.34498 -10.4122 -9.705062 -172.992377 18.489593 104.524188 -14.752287 -77.216101 -112.549145 -120.970075 43.821931 106.992383 142.263313 67.889464 -32.988615 -33.092252 63.774319 42.044822 -17.078541 12.506615 5.130248 110.007701 -27.286203 177.816911 -175.246613 7.871844 56.108527 7.870277 1.480677 42.791154 -78.090524 -72.426788 -22.837747 135.623345 38.186009 -93.146276 -16.357159 12.323486 43.377357 -146.327518 66.405584 162.691552 116.905631 -33.148423 132.520935 -1.089881 1.719383 21.359811 -4.025763 3.914248 42.926219 -12.73712 -44.59589 -4.176409 -9.208165 -1.429212 19.938376 16.993166 5.673025 -0.779528 -15.276209 8.152945 22.543473 41.767982 -64.832191 39.285295 6.422405 70.69403 -129.061781 30.109069 -13.339164 86.22386 6.448596 -1.133396 -0.0 -44.540677 1.110834 91.423195 59.462725 -26.210044 -17.730522 148.58129 18.946521 2.616625
2.3005 28.6325 -0.2765 172.476689 0.979613 -177.82385 -22.673014 17.766256 -96.435046 28.840048 4.146345 98.338992 -143.45043 47.110646 -157.90494 -34.003988 -74.470791 -84.176213 -45.15629 24.980909 -56.092027 -48.952485 22.228696 -46.685156 29.010598 43.590531 6.509584 -124.250157 29.517986 133.778766 -83.080445 -27.8014 -115.165333 45.502177 -32.523146 34.160756 5.273604 36.481529 34.497903 -49.748263 -64.638586 -110.355944 -112.100096 9.793491 122.985907 -37.870126 -42.203699 0.114124 67.563349 41.41599 13.191456 166.163361 -6.890267 159.158582 6.750161 -75.16519 -79.554314 -87.778304 -83.089322 -104.464927 -145.106721 55.819547 -87.032926 -77.796568 -30.86472 -19.179325 -10.036632 7.331779 9.835757 -65.66719 19.648004 11.71582 175.622918 1.660825 -22.144392 171.993538 6.860045 -104.827538 72.326136 60.13879 -36.848733 -33.505796 -21.63494 5.315315 -8.326399 -18.853474 56.572654 15.182307 4.828874 35.505317 95.15248 -37.539333 116.159698 109.405134 -76.640151 154.05799 139.877162 21.025164 145.658385 135.658517 -38.549634 167.283649 126.278692 10.66696 146.013318 -23.32488 -0.246644 -32.43249 77.952487 69.29463 38.739051 -120.531506 -18.315562 29.66691 63.390843 16.872772 -76.814518 141.161737 -43.666085 52.730416 7.076838 1.410485 -9.356922 -43.808274 -9.026414 180.0 -20.282724 -59.364296 129.591624 69.86274 -6.245888 96.481549
2.6719 38.696799999999996 0.22799999999999998 171.739486 0.286955 -178.171649 -28.823343 23.931497 11.411261 -15.640503 -43.69615 -14.317504 -136.582021 34.627684 19.789992 -33.153577 81.50992 162.893779 -40.987457 24.905023 -61.150981 -43.912981 19.834247 -46.891016 46.082588 38.018141 -8.829636 -121.191958 32.748049 136.816831 -177.875482 -10.677202 -139.239265 14.998835 37.460286 -6.518592 76.847166 -18.931751 -9.160653 -10.839574 -78.394483 -14.980011 -123.308498 -37.635622 142.232053 -88.282202 87.928494 22.310936 80.339067 -2.474051 -11.037856 82.207603 -75.873125 83.752402 32.150832 77.123279 47.196576 -167.784032 -45.733222 174.521041 34.597772 25.794599 -36.977963 -46.910721 21.052283 152.092576 8.154161 -0.37555 5.782203 -67.691661 10.504595 30.886351 15.927978 -0.576087 -126.073408 -1.166368 -38.931141 36.623148 -34.586524 -58.673596 14.362005 122.985789 48.820065 -49.44938 115.218054 81.892976 -114.257677 151.921665 -73.983801 -115.035192 -167.246211 16.289613 149.566785 -103.174651 82.158519 146.128936 140.28061 11.470671 162.403745 73.773518 69.885831 -95.823463 -17.931283 25.686019 -0.456277 -91.123785 69.220758 61.647725 130.120351 76.80394 -0.0 -140.047962 -8.516531 101.762819 67.230723 -53.98721 -0.353622 -117.317603 -27.858886 -164.867825 -15.830139 12.621375 -31.778015 -9.505676 -18.067293 -3.153674 -17.072945 66.086176 142.452141 135.319651 -7.341518 46.728599
2.9675 47.0229 0.9658 172.250414 0.47348 -177.993171 -32.103429 22.234426 104.988322 -47.949323 12.447525 -92.274331 -143.905768 34.203544 42.085827 63.335858 73.149496 65.392028 -51.264344 22.516304 -45.064472 -46.519997 15.912371 -36.023488 -96.151726 -28.354963 -167.001887 -3.346371 16.611445 -12.062727 -129.27895 8.68768 -164.387604 24.128453 -19.429812 12.898177 -169.296126 -61.426508 68.202026 -140.913816 -9.939524 61.781145 -99.956806 -4.450529 135.392026 -60.636811 25.312756 3.543548 83.037077 0.124061 -17.420586 167.205402 -3.834324 138.734879 -56.631366 77.860921 152.817783 -157.803678 -44.01526 -172.358009 -111.138517 -30.910933 -91.755095 60.21682 33.239445 -117.019822 173.928211 -52.217279 -167.257488 -128.691568 -13.710974 178.74838 -178.809057 30.040121 -24.778046 167.320912 13.682313 -110.531323 -4.151836 4.67162 23.100797 92.969453 -41.067099 148.840249 -12.158374 13.704254 33.856553 164.793736 37.799977 -148.686717 -166.22091 15.762526 148.33711 -158.499999 -4.427518 -177.852309 -2.908573 0.279371 13.008635 179.075817 35.519876 154.038989 -89.221649 73.080707 49.693335 8.368123 -18.534622 15.291071 -15.775554 6.924106 23.073672 23.087918 -72.045617 -180.0 57.932357 -77.67111 82.781108 158.479627 -44.978319 -152.84557 -155.609579 74.5918 0.0 98.268624 32.074749 85.58716 44.362071 54.029754 175.285255 89.134983 72.585336 119.236828
3.3808 50.5432 1.7096 172.722679 1.437027 -177.865396 -27.99716 21.480976 -124.558678 46.005339 21.802192 125.59277 -152.692944 48.623669 167.203662 58.338981 -44.643547 11.92831 -54.345445 17.841299 -34.005063 -45.942544 12.760741 -29.556102 64.058604 47.471367 -19.123575 42.325989 -33.617682 36.505325 166.875427 2.011463 100.445231 162.11203 -9.63095 146.039777 -167.985745 -60.059036 66.100967 169.777072 -22.910262 72.123184 -97.931198 -23.651192 138.650549 26.346143 -74.333103 22.152321 -50.034043 -71.393317 -168.104824 27.860917 -13.110917 27.491209 -61.992985 4.775412 -172.859223 -147.657495 -6.633789 179.273638 3.64965 40.807634 1.495441 -13.616236 34.872245 146.249073 2.604036 -37.874598 0.307674 80.966267 -27.171978 99.131894 173.755618 -3.425989 60.155503 8.745935 -11.032333 30.315338 -2.718594 6.171073 23.082696 132.277014 18.063108 -164.632744 138.943354 0.912545 -150.02175 -177.853106 -20.676325 -61.542797 170.188715 1.119136 146.469443 96.349267 -51.518004 102.278113 71.394027 -63.118966 93.657427 124.667176 -86.372263 105.773365 19.34658 -17.02853 31.428888 -5.648036 12.078087 -3.7446 -137.078333 53.159077 -49.2855 176.010537 4.211826 126.454744 75.285305 -35.762991 174.741612 61.496322 -9.826526 73.265346 -79.305854 57.485002 -46.930127 69.625344 7.996182 -101.992981 -50.343369 -55.998574 -51.266428 -142.170718 72.777611 -0.417414
